<mxfile modified="2020-04-30T06:28:19.195Z" host="app.diagrams.net" agent="5.0 (X11)" etag="MmueVK_iOKwzZnbAImVr" version="13.0.3" type="github">
  <diagram id="Ht1M8jgEwFfnCIfOTk4-" name="Page-1">
    <mxGraphModel dx="1197" dy="715" grid="1" gridSize="10" guides="1" tooltips="1" connect="1" arrows="1" fold="1" page="1" pageScale="1" pageWidth="1169" pageHeight="827" math="0" shadow="0">
      <root>
        <mxCell id="0" />
        <mxCell id="1" parent="0" />
        <mxCell id="IRfrHBrm6OW_r3Jur07C-1" value="微信开放平台" style="rounded=1;whiteSpace=wrap;html=1;fillColor=#f8cecc;strokeColor=#b85450;" parent="1" vertex="1">
          <mxGeometry x="930" y="190" width="120" height="60" as="geometry" />
        </mxCell>
        <mxCell id="IRfrHBrm6OW_r3Jur07C-4" value="" style="rounded=0;whiteSpace=wrap;html=1;fillColor=#f5f5f5;strokeColor=#666666;fontColor=#333333;" parent="1" vertex="1">
          <mxGeometry x="490" y="90" width="310" height="230" as="geometry" />
        </mxCell>
        <mxCell id="IRfrHBrm6OW_r3Jur07C-7" value="Ubuntu" style="rounded=0;whiteSpace=wrap;html=1;fillColor=#dae8fc;strokeColor=#6c8ebf;" parent="1" vertex="1">
          <mxGeometry x="505" y="280" width="285" height="30" as="geometry" />
        </mxCell>
        <mxCell id="IRfrHBrm6OW_r3Jur07C-8" value="Django/Python" style="rounded=0;whiteSpace=wrap;html=1;fillColor=#dae8fc;strokeColor=#6c8ebf;" parent="1" vertex="1">
          <mxGeometry x="505" y="240" width="285" height="30" as="geometry" />
        </mxCell>
        <mxCell id="IRfrHBrm6OW_r3Jur07C-9" value="DRF / CYbase" style="rounded=0;whiteSpace=wrap;html=1;fillColor=#dae8fc;strokeColor=#6c8ebf;" parent="1" vertex="1">
          <mxGeometry x="505" y="200" width="285" height="30" as="geometry" />
        </mxCell>
        <mxCell id="IRfrHBrm6OW_r3Jur07C-10" value="创源 ELK 日志平台" style="rounded=0;whiteSpace=wrap;html=1;fillColor=#f8cecc;strokeColor=#b85450;" parent="1" vertex="1">
          <mxGeometry x="290" y="190" width="120" height="60" as="geometry" />
        </mxCell>
        <mxCell id="IRfrHBrm6OW_r3Jur07C-11" value="日志管理" style="rounded=0;whiteSpace=wrap;html=1;fillColor=#d5e8d4;strokeColor=#82b366;" parent="1" vertex="1">
          <mxGeometry x="505" y="160" width="85" height="30" as="geometry" />
        </mxCell>
        <mxCell id="IRfrHBrm6OW_r3Jur07C-12" value="用户管理" style="rounded=0;whiteSpace=wrap;html=1;fillColor=#d5e8d4;strokeColor=#82b366;" parent="1" vertex="1">
          <mxGeometry x="600" y="160" width="85" height="30" as="geometry" />
        </mxCell>
        <mxCell id="IRfrHBrm6OW_r3Jur07C-13" value="权限管理" style="rounded=0;whiteSpace=wrap;html=1;fillColor=#d5e8d4;strokeColor=#82b366;" parent="1" vertex="1">
          <mxGeometry x="700" y="160" width="85" height="30" as="geometry" />
        </mxCell>
        <mxCell id="IRfrHBrm6OW_r3Jur07C-15" value="订单管理" style="rounded=0;whiteSpace=wrap;html=1;fillColor=#d5e8d4;strokeColor=#82b366;" parent="1" vertex="1">
          <mxGeometry x="505" y="120" width="85" height="30" as="geometry" />
        </mxCell>
        <mxCell id="IRfrHBrm6OW_r3Jur07C-16" value="库存管理" style="rounded=0;whiteSpace=wrap;html=1;fillColor=#d5e8d4;strokeColor=#82b366;" parent="1" vertex="1">
          <mxGeometry x="600" y="120" width="85" height="30" as="geometry" />
        </mxCell>
        <mxCell id="IRfrHBrm6OW_r3Jur07C-17" value="数据分析" style="rounded=0;whiteSpace=wrap;html=1;fillColor=#d5e8d4;strokeColor=#82b366;" parent="1" vertex="1">
          <mxGeometry x="700" y="120" width="85" height="30" as="geometry" />
        </mxCell>
        <mxCell id="IRfrHBrm6OW_r3Jur07C-18" value="" style="shape=flexArrow;endArrow=classic;html=1;exitX=-0.01;exitY=0.574;exitDx=0;exitDy=0;exitPerimeter=0;entryX=1;entryY=0.5;entryDx=0;entryDy=0;" parent="1" source="IRfrHBrm6OW_r3Jur07C-4" target="IRfrHBrm6OW_r3Jur07C-10" edge="1">
          <mxGeometry width="50" height="50" relative="1" as="geometry">
            <mxPoint x="390" y="410" as="sourcePoint" />
            <mxPoint x="440" y="360" as="targetPoint" />
          </mxGeometry>
        </mxCell>
        <mxCell id="IRfrHBrm6OW_r3Jur07C-19" value="" style="shape=flexArrow;endArrow=classic;startArrow=classic;html=1;exitX=1;exitY=0.565;exitDx=0;exitDy=0;exitPerimeter=0;entryX=0;entryY=0.5;entryDx=0;entryDy=0;" parent="1" source="IRfrHBrm6OW_r3Jur07C-4" target="IRfrHBrm6OW_r3Jur07C-1" edge="1">
          <mxGeometry width="50" height="50" relative="1" as="geometry">
            <mxPoint x="830" y="230" as="sourcePoint" />
            <mxPoint x="880" y="180" as="targetPoint" />
            <Array as="points">
              <mxPoint x="870" y="220" />
            </Array>
          </mxGeometry>
        </mxCell>
        <mxCell id="IRfrHBrm6OW_r3Jur07C-20" value="用户信息" style="text;html=1;align=center;verticalAlign=middle;resizable=0;points=[];autosize=1;" parent="1" vertex="1">
          <mxGeometry x="841" y="195" width="60" height="20" as="geometry" />
        </mxCell>
        <mxCell id="IRfrHBrm6OW_r3Jur07C-22" value="收集" style="text;html=1;align=center;verticalAlign=middle;resizable=0;points=[];autosize=1;" parent="1" vertex="1">
          <mxGeometry x="440" y="195" width="40" height="20" as="geometry" />
        </mxCell>
        <mxCell id="IRfrHBrm6OW_r3Jur07C-23" value="Postgres" style="shape=cylinder;whiteSpace=wrap;html=1;boundedLbl=1;backgroundOutline=1;fillColor=#f8cecc;strokeColor=#b85450;" parent="1" vertex="1">
          <mxGeometry x="490" y="390" width="60" height="80" as="geometry" />
        </mxCell>
        <mxCell id="IRfrHBrm6OW_r3Jur07C-24" value="" style="shape=flexArrow;endArrow=classic;startArrow=classic;html=1;" parent="1" edge="1">
          <mxGeometry width="50" height="50" relative="1" as="geometry">
            <mxPoint x="522.5" y="390" as="sourcePoint" />
            <mxPoint x="522.5" y="320" as="targetPoint" />
          </mxGeometry>
        </mxCell>
        <mxCell id="IRfrHBrm6OW_r3Jur07C-25" value="读写" style="text;html=1;align=center;verticalAlign=middle;resizable=0;points=[];autosize=1;" parent="1" vertex="1">
          <mxGeometry x="522.5" y="340" width="40" height="20" as="geometry" />
        </mxCell>
        <mxCell id="PhvYsG1bf2E1N6WcDsm7-1" value="Redis" style="rounded=1;whiteSpace=wrap;html=1;fillColor=#f8cecc;strokeColor=#b85450;" vertex="1" parent="1">
          <mxGeometry x="602.5" y="394" width="90" height="40" as="geometry" />
        </mxCell>
        <mxCell id="PhvYsG1bf2E1N6WcDsm7-2" value="" style="shape=flexArrow;endArrow=classic;startArrow=classic;html=1;" edge="1" parent="1">
          <mxGeometry width="50" height="50" relative="1" as="geometry">
            <mxPoint x="647.5" y="390" as="sourcePoint" />
            <mxPoint x="647.5" y="320" as="targetPoint" />
            <Array as="points">
              <mxPoint x="647.5" y="360" />
            </Array>
          </mxGeometry>
        </mxCell>
        <mxCell id="PhvYsG1bf2E1N6WcDsm7-3" value="读写" style="text;html=1;align=center;verticalAlign=middle;resizable=0;points=[];autosize=1;" vertex="1" parent="1">
          <mxGeometry x="647.5" y="340" width="40" height="20" as="geometry" />
        </mxCell>
        <mxCell id="PhvYsG1bf2E1N6WcDsm7-6" value="&lt;div&gt;Celery&lt;/div&gt;&lt;div&gt;worker/beat&lt;br&gt;&lt;/div&gt;" style="rounded=0;whiteSpace=wrap;html=1;fillColor=#dae8fc;strokeColor=#6c8ebf;" vertex="1" parent="1">
          <mxGeometry x="721" y="390" width="120" height="60" as="geometry" />
        </mxCell>
        <mxCell id="PhvYsG1bf2E1N6WcDsm7-7" value="" style="shape=flexArrow;endArrow=classic;startArrow=classic;html=1;entryX=0.884;entryY=1.009;entryDx=0;entryDy=0;entryPerimeter=0;exitX=0.367;exitY=-0.017;exitDx=0;exitDy=0;exitPerimeter=0;" edge="1" parent="1" source="PhvYsG1bf2E1N6WcDsm7-6" target="IRfrHBrm6OW_r3Jur07C-4">
          <mxGeometry width="50" height="50" relative="1" as="geometry">
            <mxPoint x="730" y="390" as="sourcePoint" />
            <mxPoint x="780" y="340" as="targetPoint" />
          </mxGeometry>
        </mxCell>
        <mxCell id="PhvYsG1bf2E1N6WcDsm7-8" value="任务处理" style="text;html=1;align=center;verticalAlign=middle;resizable=0;points=[];autosize=1;" vertex="1" parent="1">
          <mxGeometry x="770" y="340" width="60" height="20" as="geometry" />
        </mxCell>
      </root>
    </mxGraphModel>
  </diagram>
</mxfile>
